<?xml version="1.0" standalone="no"?>
<!DOCTYPE svg PUBLIC "-//W3C//DTD SVG 20010904//EN"
 "http://www.w3.org/TR/2001/REC-SVG-20010904/DTD/svg10.dtd">
<svg version="1.0" xmlns="http://www.w3.org/2000/svg"
 width="512.000000pt" height="512.000000pt" viewBox="0 0 512.000000 512.000000"
 preserveAspectRatio="xMidYMid meet">
<metadata>
Created by potrace 1.14, written by Peter Selinger 2001-2017
</metadata>
<g transform="translate(0.000000,512.000000) scale(0.100000,-0.100000)"
fill="#000000" stroke="none">
<path d="M2638 4989 c-66 -15 -138 -69 -176 -131 -41 -68 -128 -356 -147 -488
-4 -25 -10 -64 -14 -87 -5 -23 -6 -45 -3 -47 3 -3 -2 -8 -10 -11 -28 -11 -351
164 -575 311 -83 55 -121 74 -145 74 -51 -1 -98 -48 -98 -101 0 -88 108 -450
168 -562 5 -10 -259 2 -378 17 -19 3 -57 8 -85 11 -180 21 -242 32 -424 71
-121 27 -124 27 -157 9 -48 -26 -65 -83 -39 -131 21 -39 168 -184 238 -233 26
-19 47 -37 47 -40 0 -3 -37 -26 -82 -51 -330 -181 -585 -493 -685 -835 -56
-195 -72 -320 -68 -560 4 -249 28 -397 101 -615 106 -314 318 -625 573 -840
30 -25 60 -51 67 -58 32 -31 268 -184 354 -228 229 -121 540 -230 791 -278 24
-5 113 -19 129 -21 17 -2 102 -15 140 -21 61 -10 249 -18 405 -18 154 0 381
11 395 19 3 1 34 6 70 10 55 6 134 20 290 51 86 17 225 58 330 96 448 162 806
408 1061 728 183 230 325 545 375 830 2 14 6 34 9 45 19 90 27 449 12 565 -47
371 -172 636 -411 875 -109 108 -261 222 -377 281 l-49 24 34 48 c68 95 78
130 51 181 -24 48 -70 58 -165 37 -13 -3 -42 -8 -65 -11 -22 -3 -56 -8 -75
-10 -110 -16 -393 -22 -485 -11 -16 2 -43 4 -59 5 -29 1 -29 1 -10 22 31 35
232 163 344 220 88 46 108 60 123 91 16 33 17 40 3 71 -28 67 -42 71 -259 63
-106 -4 -208 -9 -227 -11 -19 -2 -66 -6 -105 -10 -38 -4 -72 -8 -75 -10 -3 -2
-30 -6 -60 -10 -29 -3 -56 -8 -59 -10 -4 -2 -26 -6 -50 -10 -24 -3 -87 -17
-140 -31 -102 -26 -125 -29 -117 -16 3 5 8 23 11 40 3 18 7 44 10 60 5 33 45
164 75 247 38 109 25 206 -39 291 -63 84 -188 128 -293 103z"/>
</g>
</svg>
